HIERARCHY
ROOT Hips
{
	OFFSET 0.00000 0.00000 0.00000
	CHANNELS 6 Xposition Yposition Zposition Yrotation Zrotation Xrotation 
	JOINT Lumbar
	{
		OFFSET 0 0 0
		CHANNELS 3 Zrotation Xrotation Yrotation
		JOINT Neck
		{
			OFFSET 0.00 0.2701 0.00
			CHANNELS 3 Zrotation Xrotation Yrotation
			End Site
			{
				OFFSET 0.00 0.1379 0.00
			}
		}
		JOINT RightShoulder
		{
			OFFSET 0.0119 0.2289 0.1181
			CHANNELS 3 Zrotation Xrotation Yrotation
			JOINT RightElbow
			{
				OFFSET 0.00 -0.1475 0.00
				CHANNELS 2 Zrotation Yrotation
				JOINT RightWrist
				{
					OFFSET 0.00 -0.1605 0.00
					CHANNELS 2 Zrotation Xrotation
					End Site
					{
						OFFSET 0.0040 -0.1068 0.0006
					}
				}
			}
		}
		JOINT LeftShoulder
		{
			OFFSET 0.0119 0.2289 -0.1181
			CHANNELS 3 Zrotation Xrotation Yrotation
			JOINT LeftElbow
			{
				OFFSET 0.00 -0.1475 0.00
				CHANNELS 2 Zrotation Yrotation
				JOINT LeftWrist
				{
					OFFSET 0.00 -0.1605 0.00
					CHANNELS 2 Zrotation Xrotation
					End Site
					{
						OFFSET 0.0040 -0.1068 -0.0006
					}
				}
			}
		}
	}
	JOINT RightHip
	{
		OFFSET 0.0316 -0.0424 0.0458
		CHANNELS 3 Zrotation Xrotation Yrotation
		JOINT RightKnee
		{
			OFFSET 0.00 -0.2438 0.00
			CHANNELS 1 Zrotation
			JOINT RightAnkle
			{
				OFFSET 0.00 -0.2449 0.00
				CHANNELS 3 Zrotation Xrotation Yrotation
				End Site
				{
					OFFSET 0.1237 -0.0542 0.0051
				}
			}
		}
	}
	JOINT LeftHip
	{
		OFFSET 0.0316 -0.0424 -0.0458
		CHANNELS 3 Zrotation Xrotation Yrotation
		JOINT LeftKnee
		{
			OFFSET 0.00 -0.2438 0.00
			CHANNELS 1 Zrotation
			JOINT LeftAnkle
			{
				OFFSET 0.00 -0.2449 0.00
				CHANNELS 3 Zrotation Xrotation Yrotation
				End Site
				{
					OFFSET 0.1237 -0.0542 -0.0051
				}
			}
		}
	}
}
MOTION
Frames: 20
Frame Time: 0.02
0.06034 0.60194 -0.1492 202.5503 0 -4.43732 8.96893 8.8488 0.8608 -38.10763 6.44665 11.75257 85.6902 9.41572 53.57675 79.16113 98.35523 22.84164 -0.11838 98.23594 42.19814 25.91386 22.0788 -51.56966 -18.15742 -4.00668 -1.40187 9.05336 4.20697 -4.4943 -2.3517 -2.92831 -12.09966 -3.02467 1.95783 -10.16379 -9.16199 6.94304 5.3775 8.69581
0.06063 0.60192 -0.14909 202.33848 0 -4.45942 8.95475 8.85887 0.53105 -37.60227 6.42185 11.51862 83.44541 8.52707 53.50832 79.93649 98.39561 22.45713 -0.10395 97.27783 42.73833 25.87209 22.22353 -51.14299 -18.29806 -4.09578 -1.34254 9.01239 3.51985 -4.53395 -2.32533 -2.91346 -11.1838 -3.06851 1.95627 -9.93121 -9.07739 6.94201 5.38725 8.68515
0.06088 0.6019 -0.14901 202.07848 0 -4.48551 8.92524 8.85955 0.18989 -36.93066 6.33725 11.18934 80.63901 7.52393 53.50555 80.81563 98.18909 21.405 0.04872 96.23782 43.40409 25.62691 22.41638 -50.5674 -18.4966 -4.21903 -1.27975 8.95428 2.27037 -4.5772 -2.26812 -2.87968 -9.65477 -3.12962 1.96347 -9.65024 -8.97392 6.94128 5.39714 8.67098
0.06115 0.60188 -0.14892 201.83766 0 -4.50995 8.89997 8.86228 -0.13939 -36.31307 6.27621 10.89168 78.07138 6.5511 53.46874 81.61915 98.03519 20.60146 0.13804 95.22201 44.02385 25.45958 22.59021 -50.04982 -18.67052 -4.32414 -1.21897 8.90612 1.32762 -4.61753 -2.22838 -2.85453 -8.45257 -3.18203 1.96649 -9.38953 -8.88113 6.94158 5.40722 8.6597
0.06143 0.60187 -0.14881 201.61055 0 -4.53341 8.88572 8.87408 -0.49824 -35.77675 6.2296 10.63766 75.5479 5.66349 53.45303 82.55587 98.10859 20.01722 0.21081 94.25674 44.59964 25.3462 22.75435 -49.56596 -18.83837 -4.44062 -1.15626 8.84859 0.16805 -4.66338 -2.17386 -2.83009 -7.04814 -3.23791 1.97024 -9.13746 -8.77899 6.93664 5.41593 8.64233
0.06169 0.60185 -0.14874 201.34176 0 -4.56003 8.84481 8.86483 -0.79769 -35.03653 6.13749 10.27195 72.81161 4.57518 53.40248 83.22713 97.66252 18.82965 0.35528 93.17096 45.29738 25.07487 22.94815 -48.9813 -19.03337 -4.54127 -1.09685 8.80698 -0.66483 -4.69839 -2.14338 -2.79901 -5.92646 -3.29086 1.97465 -8.85457 -8.69188 6.94288 5.42772 8.637
0.06192 0.6018 -0.14872 200.97925 0 -4.59358 8.73695 8.80013 -0.93066 -33.76 5.95403 9.62584 69.59044 2.94205 53.30116 83.23518 95.80286 16.04711 0.69849 91.7409 46.28109 24.42009 23.22489 -48.12922 -19.275 -4.59128 -1.04629 8.80848 -0.56849 -4.70457 -2.18041 -2.75887 -5.63402 -3.3298 1.97813 -8.5084 -8.65258 6.97887 5.44704 8.6663
0.06213 0.60175 -0.14872 200.57429 0 -4.63035 8.60226 8.71455 -1.00336 -32.28818 5.72374 8.87093 66.18416 1.11515 53.14969 82.95482 93.44031 12.69756 1.10568 90.19824 47.38604 23.61434 23.52703 -47.18645 -19.54435 -4.62371 -0.99928 8.82729 -0.11011 -4.69939 -2.24362 -2.71205 -5.6592 -3.36551 1.98208 -8.13086 -8.62884 7.02632 5.46967 8.70784
0.06235 0.6017 -0.14871 200.18248 0 -4.66624 8.47822 8.63829 -1.10308 -30.91561 5.50216 8.16326 62.88848 -0.61029 52.98333 82.74254 91.33548 9.6695 1.46411 88.72836 48.44825 22.87645 23.80927 -46.30237 -19.80982 -4.66343 -0.95147 8.84174 0.26071 -4.69805 -2.29935 -2.66475 -5.61134 -3.40381 1.98627 -7.76126 -8.59695 7.06922 5.49144 8.74348
0.06257 0.60165 -0.1487 199.81564 0 -4.69985 8.36061 8.56236 -1.2042 -29.49119 5.33081 7.46021 59.46086 -2.39683 52.98521 82.79695 89.09402 6.35135 1.91036 87.16543 49.46371 22.1329 24.12947 -45.33851 -20.04016 -4.70798 -0.90046 8.84169 0.30975 -4.70223 -2.33638 -2.63037 -5.26445 -3.43795 1.98896 -7.41713 -8.56895 7.10935 5.51048 8.78036
0.06279 0.6016 -0.14871 199.38647 0 -4.73886 8.22287 8.48099 -1.28866 -28.13259 5.04542 6.7245 56.2717 -4.10008 52.61524 82.22972 87.02659 3.50814 2.18678 85.7693 50.60248 21.36997 24.37479 -44.52216 -20.34999 -4.73699 -0.85655 8.87503 1.09388 -4.6924 -2.41769 -2.56934 -5.59467 -3.47978 1.99465 -7.01254 -8.53678 7.15795 5.53598 8.8177
0.06301 0.60153 -0.14876 198.80281 0 -4.79242 8.04113 8.38905 -1.33544 -26.98783 4.4493 5.9128 53.78902 -5.53033 51.30385 79.98534 85.51723 2.14804 1.98257 84.8715 52.06061 20.57549 24.41781 -44.12844 -20.86653 -4.73484 -0.83545 9.00651 4.07072 -4.64458 -2.6264 -2.42236 -7.97436 -3.5434 2.00954 -6.45375 -8.48937 7.22718 5.57872 8.85257
0.06322 0.60145 -0.14883 198.15672 0 -4.8512 7.83927 8.29255 -1.36865 -25.9201 3.742 5.0749 51.55568 -6.86908 49.60562 77.13189 84.21022 1.28324 1.60423 84.14275 53.63556 19.77125 24.38279 -43.88841 -21.46191 -4.71633 -0.82072 9.16931 7.7343 -4.58336 -2.87695 -2.2512 -10.98309 -3.61488 2.02719 -5.83447 -8.43722 7.30449 5.62779 8.88759
0.06344 0.60137 -0.1489 197.53475 0 -4.90726 7.64332 8.19857 -1.41224 -24.82794 3.09026 4.25748 49.20856 -8.24572 48.03671 74.57552 82.8417 0.17281 1.30194 83.33186 55.15189 18.98148 24.37572 -43.58324 -22.0261 -4.69995 -0.80036 9.31099 10.91681 -4.52969 -3.10073 -2.10076 -13.53349 -3.6827 2.04287 -5.23984 -8.3874 7.37808 5.67383 8.92307
0.06364 0.6013 -0.14896 196.92936 0 -4.96487 7.4598 8.10184 -1.43602 -23.68313 2.41428 3.39954 46.85415 -9.64311 46.66387 71.91818 81.32675 -0.87333 1.01351 82.54439 56.6994 18.14113 24.39956 -43.25473 -22.57585 -4.70437 -0.79136 9.48176 14.8102 -4.4697 -3.35741 -1.91022 -16.80791 -3.75051 2.06164 -4.65618 -8.33775 7.4524 5.7207 8.95689
0.06387 0.60122 -0.14903 196.27497 0 -5.02048 7.24635 8.01019 -1.49852 -22.67016 1.76464 2.62181 44.57964 -10.97514 44.78949 69.33695 80.17163 -1.92552 0.65585 81.74352 58.20371 17.40932 24.34235 -43.0128 -23.16885 -4.66308 -0.76053 9.59988 17.3999 -4.41953 -3.55608 -1.79601 -18.73814 -3.8206 2.07458 -4.03559 -8.28594 7.5268 5.76722 8.99387
0.06419 0.60113 -0.14912 195.50286 0 -5.06917 6.95201 7.93251 -1.67269 -21.9928 1.20151 2.06742 42.44058 -12.12945 41.64392 67.06037 79.96147 -3.13422 0.1338 80.91877 59.59571 16.95002 24.061 -42.97096 -23.9056 -4.48868 -0.66474 9.55857 16.06202 -4.40261 -3.57646 -1.91202 -16.64343 -3.89222 2.0711 -3.32935 -8.2336 7.60076 5.81174 9.04085
0.06453 0.60105 -0.14922 194.68355 0 -5.11568 6.62909 7.8604 -1.88644 -21.4484 0.67168 1.59606 40.37864 -13.2238 38.00583 64.89429 80.10828 -4.359 -0.44902 80.06544 60.93207 16.60613 23.70422 -43.01186 -24.67441 -4.27101 -0.54735 9.46431 13.41708 -4.39558 -3.53836 -2.10332 -13.20319 -3.96642 2.06158 -2.58806 -8.17842 7.67422 5.85554 9.09066
0.06485 0.60096 -0.14931 193.88432 0 -5.16327 6.32132 7.78663 -2.08126 -20.85025 0.13541 1.09023 38.29848 -14.35753 34.5782 62.7132 80.0944 -5.56215 -0.99434 79.18965 62.27107 16.23021 23.39466 -43.01599 -25.40041 -4.08031 -0.44181 9.39832 11.4727 -4.38218 -3.53205 -2.25118 -10.48092 -4.04135 2.05455 -1.8618 -8.12167 7.74699 5.89935 9.13828
0.06519 0.60088 -0.14941 193.08795 0 -5.21068 6.00322 7.70909 -2.27905 -20.22587 -0.4423 0.56961 36.15665 -15.43708 31.1845 60.35681 80.08314 -6.81172 -1.58859 78.46801 63.71342 15.7696 23.02799 -43.02112 -26.2503 -3.85802 -0.32772 9.31555 9.10017 -4.37616 -3.50519 -2.43665 -7.32816 -4.10853 2.04864 -1.13662 -8.07678 7.82393 5.94487 9.18986
